<?xml version="1.0" encoding="utf-8"?>
<!-- Generator: Adobe Illustrator 18.1.1, SVG Export Plug-In . SVG Version: 6.00 Build 0)  -->
<!DOCTYPE svg PUBLIC "-//W3C//DTD SVG 1.1//EN" "http://www.w3.org/Graphics/SVG/1.1/DTD/svg11.dtd">
<svg version="1.1" id="Capa_1" xmlns="http://www.w3.org/2000/svg" xmlns:xlink="http://www.w3.org/1999/xlink" x="0px" y="0px"
	 viewBox="0 0 61.8 62.7" enable-background="new 0 0 61.8 62.7" xml:space="preserve">
<g>
	<circle fill="#CB0017" cx="30.9" cy="30.9" r="30.9"/>
	<rect x="26.6" y="35.8" fill="#E7C7B1" width="8.8" height="16.2"/>
	<path fill="#F1F2F2" d="M31.2,62.7L31,51.1c0,0-3.7-5.9-4.5-9c-0.4-1.5-0.4-2.7-0.4-2.7s-8.4,2.8-10.3,5.7c-1.6,4.6-2,15-2,15
		L31.2,62.7z"/>
	<path fill="#E6E7E8" d="M31,62.7l0-11.6c0,0,3.8-5.9,4.7-9c0.4-1.5,0.4-2.7,0.4-2.7s8.3,2.8,10.2,5.7c1.5,4.6,2,15,2,15L31,62.7z"
		/>
	<polygon fill="#CB0017" points="31,51.1 27.5,39.4 26.3,44.7 	"/>
	<polygon fill="#F2F2F2" points="25.8,37 27.6,39.4 26.3,44.6 23.5,40.8 	"/>
	<polygon fill="#CB0017" points="31,51.1 34.2,39.3 35.8,44.7 	"/>
	<polygon fill="#F2F2F2" points="36.3,37 34.1,39.3 35.8,44.6 38.8,40.8 	"/>
	<path fill="#E7C7B1" d="M30.8,8.4c4.3,0,11.1,2.4,11.1,13.9c0,6.6-2.2,10.9-3.1,12.1c-0.9,1.1-5.7,3.4-8,3.4
		C30.8,26.3,30.8,8.4,30.8,8.4z"/>
	<path fill="#E7C7B1" d="M44,25c0.2-1.8-0.7-3.4-1.9-3.6c-1.3-0.2-2.4,1.2-2.6,3c-0.2,1.8,0.7,3.4,1.9,3.6
		C42.6,28.2,43.8,26.8,44,25z"/>
	<path fill="#F2D7BC" d="M30.9,8.4c-4.3,0-11.2,2.4-11.2,13.9c0,6.6,2.2,10.9,3.1,12.1c0.9,1.1,5.8,3.4,8.1,3.4
		C30.9,26.3,30.9,8.4,30.9,8.4z"/>
	<path fill="#F2D7BC" d="M17.6,25c-0.2-1.8,0.7-3.4,1.9-3.6c1.3-0.2,2.4,1.2,2.6,3c0.2,1.8-0.7,3.4-1.9,3.6
		C18.9,28.2,17.8,26.8,17.6,25z"/>
	<path fill="#FFFFFF" d="M30.8,32.9c2,0,3.6-0.7,3.6-1.5h-7.2C27.2,32.3,28.8,32.9,30.8,32.9z"/>
	<path fill="#632B02" d="M30.3,5c-7.9,0-10.3,6.9-10.3,10.1c-2.9,4,0.3,7.5,2.5,8.8c0-0.7,0-1,0-2c0-2.6,2.4-4.9,6.1-4.5
		c3.3,0.4,5.3-1.5,7.1-4.7C37.9,8.4,35.2,5,30.3,5z"/>
	<path fill="#632B02" d="M35.4,11.4c0,0,1.6,7.5,6.7,10c0.9-6.7,1.6-5.4,0.2-8.9c-1.4-3.5-6.9-5.6-6.9-5.6V11.4z"/>
	<path fill="#222221" d="M41.9,53.1h-1.2v3.1c0,0.8-0.3,1.5-1.3,1.5c-0.6,0-1-0.3-1-1.3v-3.2h-1.2v3.4c0,1.4,0.6,2.1,2,2.1
		c0.6,0,1.2-0.4,1.5-0.9h0v0.8h1.2V53.1L41.9,53.1L41.9,53.1z"/>
	<polygon fill="#CB0017" points="37.9,51.7 41.2,51.7 41.2,52.2 37.9,52.2 37.9,51.7 37.9,51.7 	"/>
	<path fill="#CB0017" d="M39.1,49.1c0-0.2,0.2-0.4,0.4-0.4c0.2,0,0.4,0.2,0.4,0.4c0,0.2-0.2,0.4-0.4,0.4
		C39.3,49.6,39.1,49.4,39.1,49.1L39.1,49.1L39.1,49.1z"/>
	<path fill="#CB0017" d="M37.2,50.6c0-0.4,0.3-0.7,0.7-0.7c0.4,0,0.7,0.3,0.7,0.7c0,0.4-0.3,0.7-0.7,0.7
		C37.5,51.3,37.2,51,37.2,50.6L37.2,50.6L37.2,50.6z"/>
	<path fill="#CB0017" d="M38.8,50.6c0-0.4,0.3-0.7,0.7-0.7c0.4,0,0.7,0.3,0.7,0.7c0,0.4-0.3,0.7-0.7,0.7
		C39.1,51.3,38.8,51,38.8,50.6L38.8,50.6L38.8,50.6z"/>
	<path fill="#CB0017" d="M40.5,50.6c0-0.4,0.3-0.7,0.7-0.7c0.4,0,0.7,0.3,0.7,0.7c0,0.4-0.3,0.7-0.7,0.7
		C40.8,51.3,40.5,51,40.5,50.6L40.5,50.6L40.5,50.6z"/>
</g>
</svg>
